<svg viewBox="0 0 32 32" xml:space="preserve" xmlns="http://www.w3.org/2000/svg"><g fill="#84cc16" class="fill-333333"><path d="M20 .005c-6.627 0-12 5.373-12 12 0 2.026.507 3.933 1.395 5.608l-8.344 8.342.007.006A3.515 3.515 0 0 0 0 28.477a3.529 3.529 0 0 0 3.529 3.529c.985 0 1.874-.406 2.515-1.059l-.002-.002 8.341-8.34c1.676.891 3.586 1.4 5.617 1.4 6.627 0 12-5.373 12-12s-5.373-12-12-12zM4.795 29.697a1.75 1.75 0 0 1-1.266.543 1.764 1.764 0 0 1-1.765-1.764c0-.498.21-.943.543-1.266l-.009-.008 8.066-8.066a12.101 12.101 0 0 0 2.494 2.498l-8.063 8.063zM20 22.006c-5.522 0-10-4.479-10-10 0-5.522 4.478-10 10-10 5.521 0 10 4.478 10 10 0 5.521-4.479 10-10 10z"></path><path d="M20 5.005a7 7 0 0 0-7 7 .5.5 0 0 0 1 0 6 6 0 0 1 6-6 .5.5 0 0 0 0-1z"></path></g></svg>